<svg version="1.1" id="Layer_1" xmlns="http://www.w3.org/2000/svg" xmlns:xlink="http://www.w3.org/1999/xlink" x="0px" y="0px"
	 width="100%" viewBox="0 0 731 574" enable-background="new 0 0 731 574" xml:space="preserve">
<path fill="#010101" opacity="1.000000" stroke="none" 
	d="
M5.000000,1.000000 
	C247.283218,1.000000 489.566437,1.000000 731.924805,1.000000 
	C731.924805,192.243652 731.924805,383.487335 731.924805,575.000000 
	C489.973206,575.000000 247.946304,575.000000 5.469265,574.538818 
	C5.012746,383.051788 5.006373,192.025894 5.000000,1.000000 
M142.148270,427.832916 
	C145.480911,412.369873 148.813568,396.906799 152.146225,381.443756 
	C152.544067,381.504395 152.941925,381.565033 153.339767,381.625671 
	C151.144516,417.076050 148.949249,452.526428 146.759781,487.883423 
	C156.423462,489.836578 157.163635,489.431061 159.897934,481.824249 
	C169.779800,454.332916 179.687408,426.850800 189.605698,399.372589 
	C191.255493,394.801910 193.006958,390.267944 194.711426,385.717010 
	C195.190338,385.857269 195.669235,385.997528 196.148132,386.137817 
	C189.000900,420.089050 181.853653,454.040283 174.630875,488.350281 
	C182.552719,488.350281 189.782730,488.350281 197.385422,488.350281 
	C208.984253,433.680481 220.544388,379.193054 232.208542,324.215332 
	C223.200272,324.215332 215.051773,324.464478 206.930298,324.104340 
	C203.183594,323.938171 201.722321,325.412323 200.448425,328.612701 
	C191.729309,350.517944 182.839050,372.355103 173.991821,394.209290 
	C172.830597,397.077728 171.600479,399.918274 170.402267,402.771759 
	C170.132797,402.682251 169.863327,402.592712 169.593857,402.503204 
	C170.178619,376.485870 170.763367,350.468567 171.353622,324.206818 
	C161.874863,324.206818 153.235504,324.321869 144.602112,324.145233 
	C141.529434,324.082397 141.263519,325.758606 140.770020,328.098328 
	C132.126068,369.078552 123.391052,410.039581 114.679604,451.005585 
	C112.067413,463.289459 109.466782,475.575836 106.703911,488.600983 
	C113.167175,488.600983 118.957657,488.349304 124.713181,488.689362 
	C128.557922,488.916534 129.834015,487.417053 130.550995,483.835724 
	C134.238113,465.418396 138.182510,447.052582 142.148270,427.832916 
M462.223145,183.768234 
	C458.280640,202.465057 454.331665,221.160507 450.398041,239.859192 
	C447.810364,252.159775 445.244812,264.464996 442.485352,277.647095 
	C450.665161,277.647095 458.245514,277.766754 465.810730,277.483215 
	C466.676147,277.450745 467.914917,275.261932 468.209167,273.905640 
	C473.493988,249.544724 478.667908,225.159714 483.846497,200.775818 
	C485.470612,193.128555 487.038513,185.469360 488.632172,177.815628 
	C489.192780,177.808929 489.753357,177.802231 490.313965,177.795517 
	C493.831421,210.865494 494.415955,244.194168 497.406860,277.715057 
	C502.586090,277.715057 507.385345,277.814270 512.179138,277.695129 
	C523.461243,277.414856 521.060974,279.935944 523.585205,268.195618 
	C534.901855,215.561539 545.999817,162.880402 557.158203,110.212326 
	C558.273315,104.949028 559.262756,99.659119 560.405701,93.901794 
	C552.834595,93.901794 546.023987,94.103645 539.234192,93.815155 
	C535.925049,93.674545 534.979187,95.095383 534.379028,97.953682 
	C528.711792,124.944176 522.944336,151.913620 517.196533,178.887177 
	C516.013977,184.436661 514.792419,189.977844 513.588806,195.522842 
	C513.036926,195.488129 512.485046,195.453400 511.933136,195.418671 
	C509.899323,161.645615 507.865509,127.872566 505.819855,93.902969 
	C498.926147,93.902969 492.750458,94.245781 486.634979,93.786674 
	C482.305206,93.461624 481.019867,95.118538 480.201782,99.071190 
	C474.409302,127.057304 468.375244,154.993408 462.223145,183.768234 
M276.935120,181.461166 
	C283.107330,152.448090 289.279541,123.435005 295.562256,93.902489 
	C287.188507,93.902489 279.712006,94.094933 272.253052,93.816879 
	C268.805420,93.688362 267.731384,95.016853 267.072296,98.172928 
	C257.353577,144.712860 247.562119,191.237839 237.613419,237.729034 
	C236.794739,241.554840 235.048508,245.297638 233.126892,248.740570 
	C231.061935,252.440338 227.329742,253.987549 223.265106,252.714447 
	C219.479202,251.528656 218.911758,247.983124 219.127747,244.487305 
	C219.270447,242.177475 219.617065,239.861496 220.090729,237.593887 
	C223.013626,223.600677 225.985031,209.617554 228.965851,195.636505 
	C234.338135,170.438736 239.741089,145.247498 245.104095,120.047752 
	C246.923401,111.499023 248.660812,102.932877 250.535614,93.892708 
	C241.844452,93.892708 233.875046,93.760078 225.919830,94.036324 
	C224.732376,94.077553 222.876556,95.866432 222.576721,97.140289 
	C220.254089,107.007851 218.236649,116.947281 216.127228,126.864990 
	C210.697830,152.391937 205.223389,177.909439 199.859848,203.450226 
	C196.991821,217.107574 193.847748,230.732590 191.709244,244.508957 
	C190.146515,254.575989 191.174728,264.740997 198.972961,272.460602 
	C208.408737,281.801208 220.345581,281.300140 231.733780,278.153809 
	C248.416336,273.544678 258.341705,260.909912 262.702026,245.033371 
	C268.372192,224.387451 272.186340,203.231812 276.935120,181.461166 
M288.994263,207.392059 
	C286.183289,220.726837 283.151398,234.019882 280.621124,247.407700 
	C277.881042,261.905670 284.537109,275.560669 295.805603,278.554840 
	C304.985107,280.993927 313.943329,280.074768 322.073639,274.630188 
	C324.236969,273.181519 326.341644,271.645325 328.643646,270.029724 
	C329.846741,277.725311 329.846741,277.725250 337.391022,277.723846 
	C338.723755,277.723572 340.095947,277.516693 341.382080,277.761566 
	C345.759827,278.595062 346.992096,276.330750 347.772736,272.455200 
	C352.104309,250.951157 356.688782,229.498108 361.167755,208.023666 
	C362.649933,200.917328 364.075897,193.799255 365.513306,186.756516 
	C364.562164,186.326691 364.116608,185.951294 363.668671,185.948380 
	C352.510590,185.875961 341.352081,185.805344 330.194427,185.870255 
	C329.247833,185.875748 327.633148,186.673477 327.467407,187.372910 
	C325.809326,194.371262 324.390076,201.426193 322.830017,208.813232 
	C326.702454,209.051468 329.753662,209.239182 333.670929,209.480164 
	C330.664795,222.327271 327.831787,234.591873 324.881653,246.828247 
	C324.541748,248.238174 323.669067,249.571564 322.837616,250.801315 
	C320.315857,254.531113 316.658081,256.111176 312.437927,254.722076 
	C308.607300,253.461182 308.402496,249.728653 308.541901,246.350662 
	C308.643768,243.882446 309.172821,241.414902 309.684204,238.983368 
	C312.522644,225.487900 315.418182,212.004456 318.286255,198.515213 
	C322.951935,176.571228 327.498657,154.600784 332.381775,132.705338 
	C333.223297,128.932068 335.075165,125.208855 337.203918,121.947945 
	C339.270081,118.782913 343.267212,117.291222 346.414154,119.292366 
	C348.585541,120.673164 349.814362,124.229378 350.485840,127.046631 
	C350.982849,129.131897 349.976227,131.607193 349.515228,133.883560 
	C347.784058,142.432404 346.001892,150.970901 344.112549,160.125336 
	C352.922852,160.125336 360.889038,160.218597 368.847687,160.015350 
	C369.925568,159.987839 371.697357,158.628204 371.910431,157.623062 
	C374.185669,146.890686 377.161133,136.188339 378.110474,125.317596 
	C380.178070,101.641373 365.946930,88.740974 342.451538,92.508888 
	C322.145142,95.765404 311.105804,109.853256 306.340973,128.189835 
	C299.619049,154.057831 294.758667,180.409531 288.994263,207.392059 
M411.547150,431.141266 
	C413.796173,420.669800 416.045197,410.198364 418.294189,399.726929 
	C418.935272,399.809662 419.576324,399.892426 420.217377,399.975189 
	C422.094391,429.386200 423.971405,458.797180 425.873505,488.601624 
	C431.984741,488.601624 437.631165,488.457611 443.265320,488.657928 
	C446.431488,488.770477 447.881958,487.927124 448.561035,484.505859 
	C451.991455,467.222656 455.712860,449.996674 459.398926,432.764832 
	C466.180817,401.060181 473.023560,369.368500 479.801666,337.663025 
	C480.720154,333.366638 481.412170,329.021851 482.300293,324.204712 
	C475.325012,324.204712 469.009949,324.002106 462.728790,324.373169 
	C461.450714,324.448730 459.521545,326.513794 459.207458,327.949341 
	C454.305359,350.356873 449.634552,372.814911 444.874481,395.253662 
	C443.462677,401.908813 441.939911,408.540436 440.467957,415.182831 
	C439.998688,415.137665 439.529388,415.092499 439.060089,415.047302 
	C437.227448,384.831207 435.394806,354.615143 433.551086,324.216156 
	C427.228729,324.216156 421.565216,324.412140 415.923981,324.142731 
	C412.536835,323.980957 411.511169,325.178436 410.822357,328.474365 
	C402.455414,368.510437 393.870422,408.500885 385.363342,448.507690 
	C382.577881,461.607086 379.853882,474.719574 376.946716,488.564453 
	C384.149811,488.564453 390.747955,488.678192 397.332855,488.434601 
	C398.258972,488.400360 399.685425,486.740662 399.927460,485.626373 
	C403.809509,467.753693 407.536743,449.847351 411.547150,431.141266 
M467.720673,476.147888 
	C466.932526,480.108673 466.144379,484.069489 465.247040,488.579102 
	C474.814392,488.579102 483.614197,488.915619 492.376923,488.489655 
	C502.221588,488.011078 511.852173,486.308289 520.206299,480.368988 
	C530.744385,472.876984 535.769104,461.760712 538.892273,449.996124 
	C544.427429,429.145721 549.470886,408.137299 553.812256,387.008423 
	C556.208801,375.344757 557.605774,363.324982 557.931030,351.424164 
	C558.346985,336.206451 551.351624,327.964294 536.331787,325.877625 
	C525.193909,324.330231 513.793152,324.592682 502.502930,324.355652 
	C501.410278,324.332703 499.549652,326.321533 499.262634,327.641235 
	C494.424774,349.883026 489.804199,372.171936 485.086853,394.440125 
	C479.374207,421.406708 473.615967,448.363647 467.720673,476.147888 
M596.241211,145.898071 
	C598.017151,138.003555 599.793091,130.109024 601.619690,121.988968 
	C613.243652,121.988968 624.532043,121.988968 636.167786,121.988968 
	C638.182007,112.696770 640.146179,103.635330 642.118286,94.537033 
	C641.354980,94.258621 640.903748,93.950752 640.451965,93.949898 
	C621.287781,93.913589 602.123047,93.848259 582.960510,94.024300 
	C581.735596,94.035561 579.715881,95.759552 579.436523,96.996346 
	C576.176575,111.428642 573.178101,125.920013 570.113953,140.396484 
	C563.092468,173.568756 556.066223,206.740051 549.055847,239.914673 
	C546.457214,252.212311 543.897705,264.518250 541.330872,276.769958 
	C542.174744,277.218628 542.601013,277.642944 543.028320,277.644043 
	C562.190796,277.693512 581.353638,277.754272 600.514832,277.601593 
	C601.659058,277.592468 603.542542,276.013123 603.805359,274.870789 
	C605.666077,266.782593 607.193237,258.617645 608.938721,249.919250 
	C597.420044,249.919250 586.178528,249.919250 574.326416,249.919250 
	C577.796570,233.551239 581.077942,217.793854 584.611816,202.093277 
	C584.826599,201.139130 587.025024,200.068909 588.336243,200.020554 
	C594.327576,199.799576 600.336182,200.047256 606.327698,199.828629 
	C607.648804,199.780457 609.843384,198.745010 610.080139,197.781769 
	C612.320923,188.666412 614.224976,179.468292 616.366028,169.652100 
	C607.706543,169.652100 599.807312,169.652100 591.440979,169.652100 
	C593.074890,161.622314 594.589722,154.177521 596.241211,145.898071 
M164.106689,140.681107 
	C165.438141,134.541443 166.769592,128.401794 168.185577,121.872345 
	C179.927643,121.872345 191.353546,121.872345 202.841415,121.872345 
	C204.867599,112.422729 206.797638,103.421509 208.840714,93.893066 
	C188.475204,93.893066 168.836853,93.846458 149.200424,94.019920 
	C148.130814,94.029373 146.381805,95.722351 146.122131,96.892113 
	C142.879395,111.498245 139.875549,126.157204 136.767822,140.793564 
	C130.206802,171.693726 123.609367,202.586151 117.049675,233.486588 
	C113.989105,247.903854 110.981590,262.332397 107.965355,276.682953 
	C108.713837,277.158142 109.121590,277.643158 109.530624,277.644257 
	C128.694626,277.695282 147.858887,277.732544 167.022507,277.642120 
	C168.081757,277.637146 169.893036,276.707642 170.075882,275.913971 
	C172.029434,267.434052 173.724792,258.894684 175.598633,249.852356 
	C163.618439,249.852356 152.500122,249.852356 140.938217,249.852356 
	C144.382492,233.667252 147.674805,217.920410 151.212006,202.228775 
	C151.434814,201.240311 153.543915,200.079254 154.817062,200.027817 
	C160.640808,199.792511 166.484787,199.775238 172.310440,199.985535 
	C175.344223,200.095047 176.793716,199.196762 177.392517,196.064514 
	C179.041122,187.440948 181.005814,178.877838 182.963440,169.740082 
	C174.595459,169.740082 166.501297,169.740082 157.933685,169.740082 
	C160.040237,159.941360 162.020355,150.730728 164.106689,140.681107 
M424.823792,128.335495 
	C425.291931,126.282143 425.760071,124.228798 426.279602,121.950012 
	C437.971893,121.950012 449.269501,121.950012 460.812225,121.950012 
	C462.837311,112.635414 464.803894,103.589935 466.775543,94.521202 
	C465.999786,94.252457 465.537292,93.952766 465.074249,93.951927 
	C445.909393,93.916924 426.744019,93.852936 407.580902,94.030708 
	C406.384796,94.041801 404.419647,95.797203 404.140167,97.039734 
	C400.893768,111.473763 397.915558,125.967934 394.842224,140.441071 
	C387.106201,176.872177 379.349426,213.298889 371.620392,249.731476 
	C369.703735,258.765961 367.860992,267.816132 366.035065,276.614288 
	C366.704895,277.162659 366.960022,277.554565 367.216583,277.555511 
	C386.540070,277.627655 405.863831,277.707214 425.186707,277.610229 
	C426.259613,277.604858 428.050568,276.284790 428.279694,275.293030 
	C430.182770,267.055420 431.796875,258.751068 433.624390,249.853180 
	C421.841278,249.853180 410.598419,249.853180 398.959259,249.853180 
	C402.398895,233.686081 405.646301,218.094162 409.167328,202.564301 
	C409.419464,201.452103 411.642365,200.106033 413.003052,200.043396 
	C418.990143,199.767731 425.007721,200.115326 430.989014,199.782852 
	C432.417969,199.703445 434.658203,198.104828 434.979950,196.818436 
	C437.179047,188.026657 438.965881,179.131775 441.022919,169.636414 
	C432.484253,169.636414 424.420074,169.636414 416.028015,169.636414 
	C418.956879,155.731689 421.757660,142.434891 424.823792,128.335495 
M370.075562,421.655182 
	C372.132996,389.347778 374.190430,357.040344 376.280731,324.216858 
	C367.874817,324.216858 360.234955,324.605530 352.658142,324.081879 
	C347.504120,323.725616 345.611298,325.742004 343.961029,330.350098 
	C329.026642,372.052185 313.808411,413.652649 298.690887,455.289246 
	C294.756683,466.124817 290.883881,476.982666 286.706207,488.599640 
	C293.766876,488.599640 300.046326,488.427856 306.309692,488.670746 
	C309.534821,488.795807 311.026825,487.620819 311.991699,484.601135 
	C314.819153,475.752197 317.808472,466.948853 321.046387,458.243744 
	C321.541718,456.912048 323.637634,455.430908 325.083313,455.331726 
	C330.222076,454.979248 335.407379,455.364258 340.560089,455.134247 
	C343.918884,454.984283 344.765137,455.938629 344.425659,459.406067 
	C343.492401,468.938904 343.058289,478.520630 342.408112,488.364441 
	C350.450378,488.364441 358.030273,488.364441 366.192810,488.364441 
	C367.491272,466.352173 368.781158,444.484650 370.075562,421.655182 
M252.605530,426.113495 
	C252.520218,423.300598 254.408020,423.180115 256.541870,422.987915 
	C264.921692,422.233002 272.733032,419.883575 280.061462,415.497009 
	C302.006836,402.360931 310.805511,366.016052 307.325165,349.062500 
	C304.299194,334.322418 295.408752,325.863953 280.469727,324.717407 
	C271.519379,324.030518 262.487396,324.473206 253.501312,324.150543 
	C250.283432,324.035034 249.412567,325.222534 248.774673,328.272675 
	C241.186203,364.557556 233.386063,400.798096 225.668915,437.056122 
	C222.079239,453.921783 218.549393,470.800171 214.796906,488.600159 
	C221.865372,488.600159 228.446548,488.413391 235.009430,488.678558 
	C238.314529,488.812073 239.608459,487.784882 240.274719,484.489349 
	C244.160217,465.269989 248.288330,446.099701 252.605530,426.113495 
M586.253357,423.865021 
	C586.517273,419.917145 588.561768,418.672974 592.480286,418.997681 
	C597.114319,419.381683 601.814331,419.251709 606.464111,418.977722 
	C607.723633,418.903473 609.736511,417.709381 609.990479,416.680420 
	C611.969604,408.663452 613.603271,400.561279 615.482239,391.842987 
	C607.659241,391.842987 600.469482,391.842987 593.141907,391.842987 
	C595.917542,378.779663 598.740479,366.298248 601.136230,353.735382 
	C601.869446,349.890778 603.552917,349.025391 607.164917,349.133026 
	C615.775635,349.389648 624.399231,349.215790 633.275818,349.215790 
	C635.053406,340.766327 636.738098,332.758331 638.535522,324.214630 
	C621.065735,324.214630 604.430298,324.341339 587.799622,324.118042 
	C584.035645,324.067505 582.723816,325.159363 581.952637,328.864777 
	C573.248108,370.690125 564.339355,412.472992 555.479797,454.266052 
	C553.114990,465.421448 550.731140,476.572815 548.249634,488.225647 
	C567.079407,488.225647 585.292358,488.225647 603.799194,488.225647 
	C605.472778,480.175140 607.117798,472.261841 608.887451,463.748993 
	C598.397583,463.748993 588.331543,463.748993 577.878967,463.748993 
	C580.713989,450.341003 583.423950,437.524658 586.253357,423.865021 
z"/>
<path fill="#FFFFFF" opacity="1.000000" stroke="none" 
	d="
M4.500031,1.000000 
	C5.006373,192.025894 5.012746,383.051788 5.009560,574.538818 
	C3.667813,575.000000 2.335626,575.000000 1.002579,575.000000 
	C1.001719,383.666656 1.001719,192.333328 1.002181,1.000000 
	C2.001782,1.000000 3.000921,1.000000 4.500031,1.000000 
z"/>
<path fill="#FBFBFB" opacity="1.000000" stroke="none" 
	d="
M142.092667,428.250854 
	C138.182510,447.052582 134.238113,465.418396 130.550995,483.835724 
	C129.834015,487.417053 128.557922,488.916534 124.713181,488.689362 
	C118.957657,488.349304 113.167175,488.600983 106.703911,488.600983 
	C109.466782,475.575836 112.067413,463.289459 114.679604,451.005585 
	C123.391052,410.039581 132.126068,369.078552 140.770020,328.098328 
	C141.263519,325.758606 141.529434,324.082397 144.602112,324.145233 
	C153.235504,324.321869 161.874863,324.206818 171.353622,324.206818 
	C170.763367,350.468567 170.178619,376.485870 169.593857,402.503204 
	C169.863327,402.592712 170.132797,402.682251 170.402267,402.771759 
	C171.600479,399.918274 172.830597,397.077728 173.991821,394.209290 
	C182.839050,372.355103 191.729309,350.517944 200.448425,328.612701 
	C201.722321,325.412323 203.183594,323.938171 206.930298,324.104340 
	C215.051773,324.464478 223.200272,324.215332 232.208542,324.215332 
	C220.544388,379.193054 208.984253,433.680481 197.385422,488.350281 
	C189.782730,488.350281 182.552719,488.350281 174.630875,488.350281 
	C181.853653,454.040283 189.000900,420.089050 196.148132,386.137817 
	C195.669235,385.997528 195.190338,385.857269 194.711426,385.717010 
	C193.006958,390.267944 191.255493,394.801910 189.605698,399.372589 
	C179.687408,426.850800 169.779800,454.332916 159.897934,481.824249 
	C157.163635,489.431061 156.423462,489.836578 146.759781,487.883423 
	C148.949249,452.526428 151.144516,417.076050 153.339767,381.625671 
	C152.941925,381.565033 152.544067,381.504395 152.146225,381.443756 
	C148.813568,396.906799 145.480911,412.369873 142.092667,428.250854 
z"/>
<path fill="#FCFCFC" opacity="1.000000" stroke="none" 
	d="
M462.320679,183.356842 
	C468.375244,154.993408 474.409302,127.057304 480.201782,99.071190 
	C481.019867,95.118538 482.305206,93.461624 486.634979,93.786674 
	C492.750458,94.245781 498.926147,93.902969 505.819855,93.902969 
	C507.865509,127.872566 509.899323,161.645615 511.933136,195.418671 
	C512.485046,195.453400 513.036926,195.488129 513.588806,195.522842 
	C514.792419,189.977844 516.013977,184.436661 517.196533,178.887177 
	C522.944336,151.913620 528.711792,124.944176 534.379028,97.953682 
	C534.979187,95.095383 535.925049,93.674545 539.234192,93.815155 
	C546.023987,94.103645 552.834595,93.901794 560.405701,93.901794 
	C559.262756,99.659119 558.273315,104.949028 557.158203,110.212326 
	C545.999817,162.880402 534.901855,215.561539 523.585205,268.195618 
	C521.060974,279.935944 523.461243,277.414856 512.179138,277.695129 
	C507.385345,277.814270 502.586090,277.715057 497.406860,277.715057 
	C494.415955,244.194168 493.831421,210.865494 490.313965,177.795517 
	C489.753357,177.802231 489.192780,177.808929 488.632172,177.815628 
	C487.038513,185.469360 485.470612,193.128555 483.846497,200.775818 
	C478.667908,225.159714 473.493988,249.544724 468.209167,273.905640 
	C467.914917,275.261932 466.676147,277.450745 465.810730,277.483215 
	C458.245514,277.766754 450.665161,277.647095 442.485352,277.647095 
	C445.244812,264.464996 447.810364,252.159775 450.398041,239.859192 
	C454.331665,221.160507 458.280640,202.465057 462.320679,183.356842 
z"/>
<path fill="#FCFCFC" opacity="1.000000" stroke="none" 
	d="
M276.867188,181.878357 
	C272.186340,203.231812 268.372192,224.387451 262.702026,245.033371 
	C258.341705,260.909912 248.416336,273.544678 231.733780,278.153809 
	C220.345581,281.300140 208.408737,281.801208 198.972961,272.460602 
	C191.174728,264.740997 190.146515,254.575989 191.709244,244.508957 
	C193.847748,230.732590 196.991821,217.107574 199.859848,203.450226 
	C205.223389,177.909439 210.697830,152.391937 216.127228,126.864990 
	C218.236649,116.947281 220.254089,107.007851 222.576721,97.140289 
	C222.876556,95.866432 224.732376,94.077553 225.919830,94.036324 
	C233.875046,93.760078 241.844452,93.892708 250.535614,93.892708 
	C248.660812,102.932877 246.923401,111.499023 245.104095,120.047752 
	C239.741089,145.247498 234.338135,170.438736 228.965851,195.636505 
	C225.985031,209.617554 223.013626,223.600677 220.090729,237.593887 
	C219.617065,239.861496 219.270447,242.177475 219.127747,244.487305 
	C218.911758,247.983124 219.479202,251.528656 223.265106,252.714447 
	C227.329742,253.987549 231.061935,252.440338 233.126892,248.740570 
	C235.048508,245.297638 236.794739,241.554840 237.613419,237.729034 
	C247.562119,191.237839 257.353577,144.712860 267.072296,98.172928 
	C267.731384,95.016853 268.805420,93.688362 272.253052,93.816879 
	C279.712006,94.094933 287.188507,93.902489 295.562256,93.902489 
	C289.279541,123.435005 283.107330,152.448090 276.867188,181.878357 
z"/>
<path fill="#FCFCFC" opacity="1.000000" stroke="none" 
	d="
M289.048340,206.973236 
	C294.758667,180.409531 299.619049,154.057831 306.340973,128.189835 
	C311.105804,109.853256 322.145142,95.765404 342.451538,92.508888 
	C365.946930,88.740974 380.178070,101.641373 378.110474,125.317596 
	C377.161133,136.188339 374.185669,146.890686 371.910431,157.623062 
	C371.697357,158.628204 369.925568,159.987839 368.847687,160.015350 
	C360.889038,160.218597 352.922852,160.125336 344.112549,160.125336 
	C346.001892,150.970901 347.784058,142.432404 349.515228,133.883560 
	C349.976227,131.607193 350.982849,129.131897 350.485840,127.046631 
	C349.814362,124.229378 348.585541,120.673164 346.414154,119.292366 
	C343.267212,117.291222 339.270081,118.782913 337.203918,121.947945 
	C335.075165,125.208855 333.223297,128.932068 332.381775,132.705338 
	C327.498657,154.600784 322.951935,176.571228 318.286255,198.515213 
	C315.418182,212.004456 312.522644,225.487900 309.684204,238.983368 
	C309.172821,241.414902 308.643768,243.882446 308.541901,246.350662 
	C308.402496,249.728653 308.607300,253.461182 312.437927,254.722076 
	C316.658081,256.111176 320.315857,254.531113 322.837616,250.801315 
	C323.669067,249.571564 324.541748,248.238174 324.881653,246.828247 
	C327.831787,234.591873 330.664795,222.327271 333.670929,209.480164 
	C329.753662,209.239182 326.702454,209.051468 322.830017,208.813232 
	C324.390076,201.426193 325.809326,194.371262 327.467407,187.372910 
	C327.633148,186.673477 329.247833,185.875748 330.194427,185.870255 
	C341.352081,185.805344 352.510590,185.875961 363.668671,185.948380 
	C364.116608,185.951294 364.562164,186.326691 365.513306,186.756516 
	C364.075897,193.799255 362.649933,200.917328 361.167755,208.023666 
	C356.688782,229.498108 352.104309,250.951157 347.772736,272.455200 
	C346.992096,276.330750 345.759827,278.595062 341.382080,277.761566 
	C340.095947,277.516693 338.723755,277.723572 337.391022,277.723846 
	C329.846741,277.725250 329.846741,277.725311 328.643646,270.029724 
	C326.341644,271.645325 324.236969,273.181519 322.073639,274.630188 
	C313.943329,280.074768 304.985107,280.993927 295.805603,278.554840 
	C284.537109,275.560669 277.881042,261.905670 280.621124,247.407700 
	C283.151398,234.019882 286.183289,220.726837 289.048340,206.973236 
z"/>
<path fill="#FBFBFB" opacity="1.000000" stroke="none" 
	d="
M411.423157,431.544983 
	C407.536743,449.847351 403.809509,467.753693 399.927460,485.626373 
	C399.685425,486.740662 398.258972,488.400360 397.332855,488.434601 
	C390.747955,488.678192 384.149811,488.564453 376.946716,488.564453 
	C379.853882,474.719574 382.577881,461.607086 385.363342,448.507690 
	C393.870422,408.500885 402.455414,368.510437 410.822357,328.474365 
	C411.511169,325.178436 412.536835,323.980957 415.923981,324.142731 
	C421.565216,324.412140 427.228729,324.216156 433.551086,324.216156 
	C435.394806,354.615143 437.227448,384.831207 439.060089,415.047302 
	C439.529388,415.092499 439.998688,415.137665 440.467957,415.182831 
	C441.939911,408.540436 443.462677,401.908813 444.874481,395.253662 
	C449.634552,372.814911 454.305359,350.356873 459.207458,327.949341 
	C459.521545,326.513794 461.450714,324.448730 462.728790,324.373169 
	C469.009949,324.002106 475.325012,324.204712 482.300293,324.204712 
	C481.412170,329.021851 480.720154,333.366638 479.801666,337.663025 
	C473.023560,369.368500 466.180817,401.060181 459.398926,432.764832 
	C455.712860,449.996674 451.991455,467.222656 448.561035,484.505859 
	C447.881958,487.927124 446.431488,488.770477 443.265320,488.657928 
	C437.631165,488.457611 431.984741,488.601624 425.873505,488.601624 
	C423.971405,458.797180 422.094391,429.386200 420.217377,399.975189 
	C419.576324,399.892426 418.935272,399.809662 418.294189,399.726929 
	C416.045197,410.198364 413.796173,420.669800 411.423157,431.544983 
z"/>
<path fill="#FCFCFC" opacity="1.000000" stroke="none" 
	d="
M467.799072,475.736328 
	C473.615967,448.363647 479.374207,421.406708 485.086853,394.440125 
	C489.804199,372.171936 494.424774,349.883026 499.262634,327.641235 
	C499.549652,326.321533 501.410278,324.332703 502.502930,324.355652 
	C513.793152,324.592682 525.193909,324.330231 536.331787,325.877625 
	C551.351624,327.964294 558.346985,336.206451 557.931030,351.424164 
	C557.605774,363.324982 556.208801,375.344757 553.812256,387.008423 
	C549.470886,408.137299 544.427429,429.145721 538.892273,449.996124 
	C535.769104,461.760712 530.744385,472.876984 520.206299,480.368988 
	C511.852173,486.308289 502.221588,488.011078 492.376923,488.489655 
	C483.614197,488.915619 474.814392,488.579102 465.247040,488.579102 
	C466.144379,484.069489 466.932526,480.108673 467.799072,475.736328 
M530.726868,352.093353 
	C523.870178,346.389374 519.603760,347.552612 517.825256,355.747070 
	C511.595215,384.451599 505.410309,413.165955 499.252014,441.885956 
	C497.705383,449.098907 496.322357,456.346924 494.852631,463.636047 
	C503.972748,464.346619 508.224060,462.173798 511.857269,454.704926 
	C513.516785,451.293427 514.960510,447.670502 515.798828,443.983582 
	C520.948059,421.337891 526.275452,398.720001 530.694580,375.928253 
	C532.138123,368.483093 531.042786,360.545654 530.726868,352.093353 
z"/>
<path fill="#FCFCFC" opacity="1.000000" stroke="none" 
	d="
M596.172852,146.315399 
	C594.589722,154.177521 593.074890,161.622314 591.440979,169.652100 
	C599.807312,169.652100 607.706543,169.652100 616.366028,169.652100 
	C614.224976,179.468292 612.320923,188.666412 610.080139,197.781769 
	C609.843384,198.745010 607.648804,199.780457 606.327698,199.828629 
	C600.336182,200.047256 594.327576,199.799576 588.336243,200.020554 
	C587.025024,200.068909 584.826599,201.139130 584.611816,202.093277 
	C581.077942,217.793854 577.796570,233.551239 574.326416,249.919250 
	C586.178528,249.919250 597.420044,249.919250 608.938721,249.919250 
	C607.193237,258.617645 605.666077,266.782593 603.805359,274.870789 
	C603.542542,276.013123 601.659058,277.592468 600.514832,277.601593 
	C581.353638,277.754272 562.190796,277.693512 543.028320,277.644043 
	C542.601013,277.642944 542.174744,277.218628 541.330872,276.769958 
	C543.897705,264.518250 546.457214,252.212311 549.055847,239.914673 
	C556.066223,206.740051 563.092468,173.568756 570.113953,140.396484 
	C573.178101,125.920013 576.176575,111.428642 579.436523,96.996346 
	C579.715881,95.759552 581.735596,94.035561 582.960510,94.024300 
	C602.123047,93.848259 621.287781,93.913589 640.451965,93.949898 
	C640.903748,93.950752 641.354980,94.258621 642.118286,94.537033 
	C640.146179,103.635330 638.182007,112.696770 636.167786,121.988968 
	C624.532043,121.988968 613.243652,121.988968 601.619690,121.988968 
	C599.793091,130.109024 598.017151,138.003555 596.172852,146.315399 
z"/>
<path fill="#FCFCFC" opacity="1.000000" stroke="none" 
	d="
M164.053589,141.100586 
	C162.020355,150.730728 160.040237,159.941360 157.933685,169.740082 
	C166.501297,169.740082 174.595459,169.740082 182.963440,169.740082 
	C181.005814,178.877838 179.041122,187.440948 177.392517,196.064514 
	C176.793716,199.196762 175.344223,200.095047 172.310440,199.985535 
	C166.484787,199.775238 160.640808,199.792511 154.817062,200.027817 
	C153.543915,200.079254 151.434814,201.240311 151.212006,202.228775 
	C147.674805,217.920410 144.382492,233.667252 140.938217,249.852356 
	C152.500122,249.852356 163.618439,249.852356 175.598633,249.852356 
	C173.724792,258.894684 172.029434,267.434052 170.075882,275.913971 
	C169.893036,276.707642 168.081757,277.637146 167.022507,277.642120 
	C147.858887,277.732544 128.694626,277.695282 109.530624,277.644257 
	C109.121590,277.643158 108.713837,277.158142 107.965355,276.682953 
	C110.981590,262.332397 113.989105,247.903854 117.049675,233.486588 
	C123.609367,202.586151 130.206802,171.693726 136.767822,140.793564 
	C139.875549,126.157204 142.879395,111.498245 146.122131,96.892113 
	C146.381805,95.722351 148.130814,94.029373 149.200424,94.019920 
	C168.836853,93.846458 188.475204,93.893066 208.840714,93.893066 
	C206.797638,103.421509 204.867599,112.422729 202.841415,121.872345 
	C191.353546,121.872345 179.927643,121.872345 168.185577,121.872345 
	C166.769592,128.401794 165.438141,134.541443 164.053589,141.100586 
z"/>
<path fill="#FCFCFC" opacity="1.000000" stroke="none" 
	d="
M424.691101,128.736801 
	C421.757660,142.434891 418.956879,155.731689 416.028015,169.636414 
	C424.420074,169.636414 432.484253,169.636414 441.022919,169.636414 
	C438.965881,179.131775 437.179047,188.026657 434.979950,196.818436 
	C434.658203,198.104828 432.417969,199.703445 430.989014,199.782852 
	C425.007721,200.115326 418.990143,199.767731 413.003052,200.043396 
	C411.642365,200.106033 409.419464,201.452103 409.167328,202.564301 
	C405.646301,218.094162 402.398895,233.686081 398.959259,249.853180 
	C410.598419,249.853180 421.841278,249.853180 433.624390,249.853180 
	C431.796875,258.751068 430.182770,267.055420 428.279694,275.293030 
	C428.050568,276.284790 426.259613,277.604858 425.186707,277.610229 
	C405.863831,277.707214 386.540070,277.627655 367.216583,277.555511 
	C366.960022,277.554565 366.704895,277.162659 366.035065,276.614288 
	C367.860992,267.816132 369.703735,258.765961 371.620392,249.731476 
	C379.349426,213.298889 387.106201,176.872177 394.842224,140.441071 
	C397.915558,125.967934 400.893768,111.473763 404.140167,97.039734 
	C404.419647,95.797203 406.384796,94.041801 407.580902,94.030708 
	C426.744019,93.852936 445.909393,93.916924 465.074249,93.951927 
	C465.537292,93.952766 465.999786,94.252457 466.775543,94.521202 
	C464.803894,103.589935 462.837311,112.635414 460.812225,121.950012 
	C449.269501,121.950012 437.971893,121.950012 426.279602,121.950012 
	C425.760071,124.228798 425.291931,126.282143 424.691101,128.736801 
z"/>
<path fill="#FBFBFB" opacity="1.000000" stroke="none" 
	d="
M370.073303,422.136169 
	C368.781158,444.484650 367.491272,466.352173 366.192810,488.364441 
	C358.030273,488.364441 350.450378,488.364441 342.408112,488.364441 
	C343.058289,478.520630 343.492401,468.938904 344.425659,459.406067 
	C344.765137,455.938629 343.918884,454.984283 340.560089,455.134247 
	C335.407379,455.364258 330.222076,454.979248 325.083313,455.331726 
	C323.637634,455.430908 321.541718,456.912048 321.046387,458.243744 
	C317.808472,466.948853 314.819153,475.752197 311.991699,484.601135 
	C311.026825,487.620819 309.534821,488.795807 306.309692,488.670746 
	C300.046326,488.427856 293.766876,488.599640 286.706207,488.599640 
	C290.883881,476.982666 294.756683,466.124817 298.690887,455.289246 
	C313.808411,413.652649 329.026642,372.052185 343.961029,330.350098 
	C345.611298,325.742004 347.504120,323.725616 352.658142,324.081879 
	C360.234955,324.605530 367.874817,324.216858 376.280731,324.216858 
	C374.190430,357.040344 372.132996,389.347778 370.073303,422.136169 
M342.964203,394.460693 
	C339.051300,405.866882 335.138397,417.273041 331.153839,428.888184 
	C336.630341,428.888184 341.707245,428.888184 347.048492,428.888184 
	C348.447235,410.848480 349.825043,393.078949 351.202850,375.309387 
	C350.711975,375.238708 350.221100,375.168030 349.730194,375.097321 
	C347.563477,381.304138 345.396759,387.510956 342.964203,394.460693 
z"/>
<path fill="#FCFCFC" opacity="1.000000" stroke="none" 
	d="
M252.470032,426.513184 
	C248.288330,446.099701 244.160217,465.269989 240.274719,484.489349 
	C239.608459,487.784882 238.314529,488.812073 235.009430,488.678558 
	C228.446548,488.413391 221.865372,488.600159 214.796906,488.600159 
	C218.549393,470.800171 222.079239,453.921783 225.668915,437.056122 
	C233.386063,400.798096 241.186203,364.557556 248.774673,328.272675 
	C249.412567,325.222534 250.283432,324.035034 253.501312,324.150543 
	C262.487396,324.473206 271.519379,324.030518 280.469727,324.717407 
	C295.408752,325.863953 304.299194,334.322418 307.325165,349.062500 
	C310.805511,366.016052 302.006836,402.360931 280.061462,415.497009 
	C272.733032,419.883575 264.921692,422.233002 256.541870,422.987915 
	C254.408020,423.180115 252.520218,423.300598 252.470032,426.513184 
M261.379486,397.917847 
	C267.517334,397.653412 272.976105,395.846191 275.905518,390.006195 
	C280.734161,380.379852 282.915070,370.007965 282.918304,359.300018 
	C282.920105,353.345062 277.607452,348.921539 271.512909,349.328186 
	C270.313934,349.408203 268.444061,350.872009 268.193268,351.991089 
	C264.972351,366.363037 261.956604,380.781677 259.034668,395.217987 
	C258.872894,396.017303 259.988861,397.075195 261.379486,397.917847 
z"/>
<path fill="#FBFBFB" opacity="1.000000" stroke="none" 
	d="
M586.193604,424.286682 
	C583.423950,437.524658 580.713989,450.341003 577.878967,463.748993 
	C588.331543,463.748993 598.397583,463.748993 608.887451,463.748993 
	C607.117798,472.261841 605.472778,480.175140 603.799194,488.225647 
	C585.292358,488.225647 567.079407,488.225647 548.249634,488.225647 
	C550.731140,476.572815 553.114990,465.421448 555.479797,454.266052 
	C564.339355,412.472992 573.248108,370.690125 581.952637,328.864777 
	C582.723816,325.159363 584.035645,324.067505 587.799622,324.118042 
	C604.430298,324.341339 621.065735,324.214630 638.535522,324.214630 
	C636.738098,332.758331 635.053406,340.766327 633.275818,349.215790 
	C624.399231,349.215790 615.775635,349.389648 607.164917,349.133026 
	C603.552917,349.025391 601.869446,349.890778 601.136230,353.735382 
	C598.740479,366.298248 595.917542,378.779663 593.141907,391.842987 
	C600.469482,391.842987 607.659241,391.842987 615.482239,391.842987 
	C613.603271,400.561279 611.969604,408.663452 609.990479,416.680420 
	C609.736511,417.709381 607.723633,418.903473 606.464111,418.977722 
	C601.814331,419.251709 597.114319,419.381683 592.480286,418.997681 
	C588.561768,418.672974 586.517273,419.917145 586.193604,424.286682 
z"/>
<path fill="#050505" opacity="1.000000" stroke="none" 
	d="
M530.917725,352.463379 
	C531.042786,360.545654 532.138123,368.483093 530.694580,375.928253 
	C526.275452,398.720001 520.948059,421.337891 515.798828,443.983582 
	C514.960510,447.670502 513.516785,451.293427 511.857269,454.704926 
	C508.224060,462.173798 503.972748,464.346619 494.852631,463.636047 
	C496.322357,456.346924 497.705383,449.098907 499.252014,441.885956 
	C505.410309,413.165955 511.595215,384.451599 517.825256,355.747070 
	C519.603760,347.552612 523.870178,346.389374 530.917725,352.463379 
z"/>
<path fill="#080808" opacity="1.000000" stroke="none" 
	d="
M343.097107,394.089233 
	C345.396759,387.510956 347.563477,381.304138 349.730194,375.097321 
	C350.221100,375.168030 350.711975,375.238708 351.202850,375.309387 
	C349.825043,393.078949 348.447235,410.848480 347.048492,428.888184 
	C341.707245,428.888184 336.630341,428.888184 331.153839,428.888184 
	C335.138397,417.273041 339.051300,405.866882 343.097107,394.089233 
z"/>
<path fill="#060606" opacity="1.000000" stroke="none" 
	d="
M260.944794,397.965302 
	C259.988861,397.075195 258.872894,396.017303 259.034668,395.217987 
	C261.956604,380.781677 264.972351,366.363037 268.193268,351.991089 
	C268.444061,350.872009 270.313934,349.408203 271.512909,349.328186 
	C277.607452,348.921539 282.920105,353.345062 282.918304,359.300018 
	C282.915070,370.007965 280.734161,380.379852 275.905518,390.006195 
	C272.976105,395.846191 267.517334,397.653412 260.944794,397.965302 
z"/>
</svg>