<svg version="1.1" id="Layer_1" xmlns="http://www.w3.org/2000/svg" xmlns:xlink="http://www.w3.org/1999/xlink" x="0px" y="0px"
	 width="100%" viewBox="0 0 728 577" enable-background="new 0 0 728 577" xml:space="preserve">
<path fill="#FEFEFE" opacity="1.000000" stroke="none" 
	d="
M472.000000,578.000000 
	C314.666656,578.000000 157.833328,578.000000 1.000000,578.000000 
	C1.000000,385.666656 1.000000,193.333328 1.000000,1.000000 
	C243.666672,1.000000 486.333344,1.000000 729.000000,1.000000 
	C729.000000,193.333328 729.000000,385.666656 729.000000,578.000000 
	C643.500000,578.000000 558.000000,578.000000 472.000000,578.000000 
M151.490173,325.215790 
	C147.158157,325.215515 142.814713,325.407532 138.497925,325.150940 
	C135.339188,324.963196 134.364090,326.089233 133.711121,329.194641 
	C124.271385,374.088654 114.636276,418.941620 105.077042,463.810547 
	C103.293350,472.182831 101.636757,480.582184 99.799789,489.564209 
	C107.091171,489.564209 113.722191,489.703186 120.334274,489.411926 
	C121.307503,489.369080 122.754814,487.408051 123.032150,486.128479 
	C128.103531,462.729645 133.026596,439.298645 137.987839,415.875916 
	C140.346542,404.740082 142.719284,393.607208 145.085663,382.472992 
	C145.503128,382.528900 145.920593,382.584778 146.338074,382.640686 
	C144.144730,418.055145 141.951401,453.469635 139.763382,488.798370 
	C148.951065,491.027161 150.183823,490.354065 152.994797,482.536316 
	C163.724228,452.696167 174.493805,422.870453 185.280609,393.051025 
	C185.770294,391.697266 186.573074,390.456757 187.230026,389.163513 
	C187.661179,389.319336 188.092346,389.475189 188.523499,389.631012 
	C181.597473,422.767395 174.671448,455.903809 167.686462,489.322296 
	C175.605133,489.322296 182.836655,489.322296 190.387787,489.322296 
	C201.980194,434.701202 213.526489,380.297424 225.221832,325.191315 
	C215.537460,325.191315 206.431702,325.082733 197.335693,325.330750 
	C196.216858,325.361298 194.678314,327.096985 194.134140,328.381409 
	C190.053513,338.012848 186.157135,347.722656 182.235092,357.420898 
	C175.985245,372.875244 169.760223,388.339630 163.524704,403.799805 
	C163.218018,403.745728 162.911316,403.691681 162.604630,403.637634 
	C163.183395,377.551758 163.762161,351.465881 164.344574,325.215790 
	C159.776642,325.215790 156.129379,325.215790 151.490173,325.215790 
M540.508911,94.903198 
	C538.342590,94.903137 536.135498,95.170593 534.018188,94.848328 
	C529.350525,94.137848 527.920471,96.192474 527.010376,100.634804 
	C520.939270,130.266708 514.525085,159.828384 508.197296,189.407516 
	C507.682404,191.814270 506.980896,194.181091 506.366119,196.566467 
	C505.883179,196.498215 505.400269,196.429962 504.917328,196.361710 
	C502.895630,162.654800 500.873932,128.947906 498.831207,94.890335 
	C491.085907,94.890335 483.942902,94.740257 476.819885,95.049690 
	C475.732452,95.096939 474.103821,97.126244 473.796906,98.481468 
	C470.492157,113.073715 467.369629,127.707703 464.260529,142.343719 
	C457.283539,175.187714 450.334290,208.037628 443.391022,240.888779 
	C440.791595,253.187500 438.240143,265.496368 435.493378,278.630005 
	C443.702301,278.630005 451.290253,278.749023 458.863007,278.464539 
	C459.715179,278.432556 460.925903,276.215881 461.221893,274.850128 
	C466.503723,250.478317 471.675842,226.082703 476.857117,201.689148 
	C478.477417,194.060776 480.055237,186.423370 481.652527,178.790115 
	C482.120453,178.797226 482.588379,178.804337 483.056305,178.811447 
	C485.857941,195.177490 485.711487,211.842773 487.009857,228.353088 
	C488.320557,245.020279 489.137695,261.726288 490.189850,278.719238 
	C497.707764,278.719238 504.523895,278.895416 511.315765,278.567871 
	C512.645447,278.503754 514.719788,276.682800 515.030518,275.342743 
	C518.222046,261.581299 521.156311,247.759491 524.094116,233.940033 
	C531.629822,198.492981 539.133911,163.039200 546.643921,127.586693 
	C548.907898,116.899323 551.149963,106.207321 553.531555,94.903198 
	C549.082153,94.903198 545.289734,94.903198 540.508911,94.903198 
M271.464233,175.045334 
	C277.134674,148.493286 282.805115,121.941246 288.581116,94.894829 
	C279.769012,94.894829 271.958313,95.029335 264.156281,94.828026 
	C261.074310,94.748505 260.616425,96.548637 260.182098,98.783699 
	C259.072174,104.495140 257.995300,110.214172 256.788605,115.905449 
	C248.134155,156.723801 239.514435,197.549805 230.678848,238.328979 
	C229.781799,242.469116 227.940506,246.556702 225.786453,250.228088 
	C223.781021,253.646210 219.714813,255.403076 216.289276,253.523972 
	C214.141113,252.345596 212.895065,248.648193 212.265015,245.851074 
	C211.752777,243.576996 212.610611,240.930176 213.115707,238.501663 
	C216.026581,224.506134 218.997040,210.522903 221.977768,196.542007 
	C227.349930,171.344070 232.756973,146.153595 238.120972,120.953941 
	C239.936661,112.423965 241.666168,103.875648 243.474487,95.145416 
	C233.957077,95.145416 225.190979,95.145416 216.146088,95.145416 
	C213.774490,106.216499 211.435425,117.085732 209.118896,127.959770 
	C203.681152,153.485092 198.207047,179.002823 192.841904,204.543411 
	C189.973022,218.200531 186.820465,231.824890 184.697479,245.602951 
	C183.146545,255.668457 184.199631,265.835297 192.039993,273.527039 
	C201.511642,282.819122 213.440552,282.310669 224.823044,279.124634 
	C241.477875,274.462891 251.494583,261.859009 255.712906,245.941177 
	C261.836792,222.832565 266.152527,199.244781 271.464233,175.045334 
M290.002045,170.489517 
	C286.096954,188.854004 282.048004,207.189545 278.343994,225.594482 
	C276.316406,235.669479 273.949707,245.812042 273.399689,256.013824 
	C272.726929,268.491913 280.803406,278.335724 290.869385,280.086365 
	C301.319672,281.903870 310.642609,279.774658 318.828217,272.917328 
	C319.632507,272.243561 320.670624,271.848938 321.716522,271.259094 
	C322.797729,278.726532 322.797729,278.726471 330.034760,278.723999 
	C331.534119,278.723511 333.070435,278.511414 334.525726,278.764618 
	C338.575867,279.469360 339.934357,277.536102 340.690125,273.802063 
	C345.140808,251.812057 349.818329,229.868027 354.399567,207.904358 
	C355.808380,201.150162 357.154510,194.382904 358.690002,186.831635 
	C346.100220,186.831635 334.325531,186.790070 322.552734,186.922409 
	C321.742859,186.931519 320.422028,188.118851 320.228546,188.962341 
	C318.678802,195.718063 317.343475,202.522995 315.845703,209.782028 
	C319.434967,209.998734 322.515839,210.184738 325.628632,210.372681 
	C325.760498,211.062363 326.006805,211.563507 325.916687,211.994263 
	C323.568359,223.222473 321.374237,234.489105 318.679840,245.634598 
	C317.973541,248.556137 316.269928,251.853058 313.975098,253.596664 
	C311.782654,255.262497 307.921021,256.173431 305.368958,255.432541 
	C303.576355,254.912140 301.994110,251.159531 301.684967,248.679825 
	C301.308990,245.664017 302.187225,242.430923 302.835358,239.357697 
	C309.898529,205.865067 316.945557,172.368530 324.212646,138.919937 
	C325.325287,133.798874 327.048431,128.674728 329.380646,123.996399 
	C331.320221,120.105743 335.448975,118.438522 339.661377,120.198631 
	C343.637390,121.859947 343.921051,125.930252 343.526489,129.637772 
	C343.158722,133.093506 342.162292,136.481140 341.464142,139.903152 
	C340.057922,146.796021 338.666321,153.691895 337.157013,161.137558 
	C345.884277,161.137558 353.692993,161.250015 361.491547,161.020004 
	C362.703400,160.984253 364.691681,159.563370 364.928375,158.479065 
	C367.197144,148.085312 370.170776,137.706665 371.014923,127.169296 
	C372.830383,104.507576 361.371979,89.799896 335.792358,93.387825 
	C318.787476,95.773003 303.816559,110.192993 299.109833,129.277100 
	C295.809021,142.660629 293.096313,156.189209 290.002045,170.489517 
M372.271973,489.641571 
	C377.604828,489.628113 382.939667,489.522644 388.269745,489.638184 
	C391.142059,489.700409 392.876160,489.192200 393.252930,485.735291 
	C393.700500,481.629211 394.983826,477.617981 395.840637,473.552094 
	C400.573059,451.095215 405.272064,428.631256 410.030823,406.179962 
	C410.425385,404.318390 411.178467,402.532806 411.764954,400.711914 
	C412.249878,400.802277 412.734772,400.892639 413.219696,400.983002 
	C415.097229,430.405457 416.974792,459.827911 418.874695,489.600647 
	C421.734650,489.600647 424.044128,489.600708 426.353607,489.600647 
	C441.172089,489.600281 440.900452,489.543823 443.881592,475.190826 
	C452.670441,432.876160 461.697906,390.611084 470.623840,348.324890 
	C472.214325,340.789948 473.766235,333.246857 475.441162,325.202271 
	C468.246094,325.202271 461.931122,325.030090 455.641479,325.351990 
	C454.427643,325.414062 452.547333,327.243652 452.265686,328.538727 
	C447.037842,352.576843 442.019043,376.660400 436.922241,400.727203 
	C435.827118,405.898346 434.598877,411.041321 433.431946,416.197266 
	C432.974213,416.140625 432.516510,416.083954 432.058777,416.027283 
	C430.223663,385.805817 428.388550,355.584351 426.544525,325.215973 
	C420.149445,325.215973 414.480133,325.443207 408.840393,325.132874 
	C405.318237,324.939056 404.478973,326.365204 403.817200,329.559662 
	C397.780212,358.702148 391.507599,387.795776 385.329254,416.909058 
	C380.497559,439.676758 375.678223,462.447144 370.949738,485.236328 
	C370.667633,486.595978 371.241638,488.133301 372.271973,489.641571 
M459.548340,489.524750 
	C467.705475,489.549866 475.871582,489.826630 484.017487,489.536530 
	C494.225250,489.173004 504.194885,487.580688 512.911560,481.578339 
	C523.582886,474.230011 528.588989,463.066010 531.829956,451.347809 
	C537.049988,432.473633 541.763000,413.417511 545.627869,394.224365 
	C548.372742,380.593719 550.270081,366.652069 550.904297,352.774231 
	C551.611023,337.307983 544.496277,329.072113 529.188171,326.842560 
	C518.720764,325.318024 507.969513,325.810760 497.360779,325.150848 
	C493.724670,324.924652 492.644592,326.322540 491.930664,329.737823 
	C483.161316,371.689514 474.162445,413.593170 465.333191,455.532471 
	C462.990509,466.660309 461.023193,477.867188 459.548340,489.524750 
M559.920349,157.324341 
	C551.348755,197.536575 542.777161,237.748825 534.260193,277.704712 
	C535.256409,278.294342 535.536682,278.605194 535.817932,278.605988 
	C554.978760,278.660370 574.139771,278.727142 593.299988,278.630432 
	C594.474548,278.624512 596.474670,277.497192 596.683533,276.573486 
	C598.572693,268.217377 600.147888,259.790283 601.903809,250.936584 
	C590.294067,250.936584 579.172974,250.936584 568.039062,250.936584 
	C567.910461,250.100098 567.693176,249.593781 567.784851,249.151550 
	C570.924194,234.012024 574.010742,218.860062 577.412964,203.779404 
	C577.685120,202.572815 580.124084,201.134598 581.624146,201.052917 
	C587.439758,200.736267 593.289673,201.077179 599.110840,200.816574 
	C600.535278,200.752792 602.869446,199.578079 603.138123,198.502594 
	C605.383850,189.512970 607.244446,180.427155 609.345215,170.802399 
	C600.869385,170.802399 592.944580,170.802399 584.328979,170.802399 
	C587.786438,154.551178 591.116516,138.899124 594.491882,123.033768 
	C606.200378,123.033768 617.493713,123.033768 629.177673,123.033768 
	C631.184326,113.672287 633.143860,104.530457 635.210327,94.889687 
	C614.799561,94.889687 595.159119,94.813210 575.523315,95.082092 
	C574.360474,95.098015 572.565308,97.741104 572.195740,99.411903 
	C567.994080,118.406342 564.013000,137.449570 559.920349,157.324341 
M117.781342,198.245880 
	C112.147766,224.822540 106.514191,251.399185 100.945107,277.671631 
	C101.681931,278.210480 101.815804,278.394135 101.950729,278.394897 
	C121.422234,278.506744 140.893829,278.635620 160.365280,278.614746 
	C161.337555,278.613708 162.976532,277.460327 163.176163,276.585815 
	C165.084000,268.227539 166.748230,259.813690 168.625259,250.723846 
	C156.676285,250.723846 145.469254,250.723846 133.954956,250.723846 
	C137.371582,234.684402 140.578598,219.244843 144.089874,203.874771 
	C144.370560,202.646088 146.709335,201.139389 148.163773,201.058533 
	C153.979111,200.735260 159.826614,200.801910 165.654678,200.976013 
	C168.515259,201.061462 169.784622,200.083374 170.342743,197.213654 
	C172.021805,188.580307 173.979370,180.001129 175.989792,170.649628 
	C167.579575,170.649628 159.406021,170.649628 150.953476,170.649628 
	C154.438477,154.344498 157.760056,138.803894 161.164993,122.873306 
	C172.926590,122.873306 184.352814,122.873306 195.840912,122.873306 
	C197.867401,113.423706 199.797760,104.422379 201.841370,94.892990 
	C181.476318,94.892990 161.837570,94.828438 142.202347,95.062431 
	C141.090683,95.075684 139.333878,97.393097 139.011322,98.883522 
	C131.906769,131.710968 124.962578,164.573135 117.781342,198.245880 
M418.016541,128.499283 
	C418.405273,126.753479 418.794006,125.007675 419.272400,122.859177 
	C430.960602,122.859177 442.378815,122.859177 453.862579,122.859177 
	C455.895020,113.408318 457.830170,104.409981 459.876678,94.893684 
	C439.501923,94.893684 419.862335,94.847008 400.224762,95.020569 
	C399.153381,95.030037 397.412109,96.720497 397.143555,97.894119 
	C394.881836,107.778145 392.921631,117.730682 390.813171,127.650368 
	C383.278412,163.099335 375.709991,198.541168 368.177429,233.990601 
	C365.079193,248.571320 362.039581,263.164490 358.947052,277.876892 
	C359.874115,278.261047 360.459198,278.714722 361.044891,278.715576 
	C380.043274,278.743317 399.041870,278.755951 418.039642,278.642365 
	C419.102325,278.636017 420.918030,277.709167 421.100830,276.915405 
	C423.053741,268.434967 424.747650,259.894897 426.621368,250.846268 
	C414.643951,250.846268 403.526978,250.846268 391.965027,250.846268 
	C395.408051,234.656036 398.697815,218.909760 402.233490,203.218903 
	C402.455780,202.232590 404.575104,201.078918 405.853149,201.027390 
	C411.676697,200.792587 417.520721,200.770950 423.345734,200.986832 
	C426.397522,201.099945 427.821442,200.159195 428.418671,197.049088 
	C430.072693,188.435944 432.030212,179.881073 433.989624,170.734329 
	C425.602386,170.734329 417.514984,170.734329 408.962128,170.734329 
	C412.002411,156.531860 414.913757,142.931519 418.016541,128.499283 
M280.847260,486.273834 
	C279.389954,489.096344 280.692810,489.690765 283.339813,489.634796 
	C288.668793,489.522064 294.011047,489.411285 299.329803,489.669830 
	C302.574921,489.827606 304.035431,488.583069 304.997528,485.578491 
	C307.780762,476.886688 310.801056,468.269501 313.839172,459.662170 
	C314.289093,458.387512 315.302032,456.347687 316.116943,456.316925 
	C323.168304,456.050812 330.234009,456.163666 337.646698,456.163666 
	C336.861267,467.745331 336.136536,478.431946 335.393951,489.381653 
	C343.496674,489.381653 351.081390,489.381653 359.153046,489.381653 
	C362.502686,434.667053 365.840210,380.150757 369.203308,325.216644 
	C360.574615,325.216644 352.760956,325.544617 344.992920,325.091309 
	C340.470215,324.827393 338.665344,326.594025 337.232422,330.569092 
	C318.602692,382.251129 299.831177,433.882111 280.847260,486.273834 
M233.863602,366.360291 
	C225.238052,407.136536 216.612503,447.912750 207.794250,489.599945 
	C214.718918,489.599945 221.143097,489.345306 227.534042,489.696106 
	C231.323517,489.904114 232.634354,488.660004 233.376526,484.973175 
	C237.439697,464.788177 241.806793,444.664368 246.106705,424.343506 
	C255.811783,423.573059 264.850708,421.478851 273.222717,416.411438 
	C294.974060,403.245605 303.859100,366.844330 300.298615,349.882446 
	C297.475555,336.433563 290.179352,328.109283 276.730988,326.293945 
	C266.235382,324.877228 255.466232,325.388977 244.817963,325.366425 
	C243.848145,325.364349 242.312180,327.587463 241.988922,328.995361 
	C239.199677,341.143036 236.628601,353.340790 233.863602,366.360291 
M603.836060,415.273346 
	C605.303589,407.997986 606.771118,400.722595 608.322083,393.033539 
	C600.676758,393.033539 593.548035,393.033539 586.120178,393.033539 
	C588.737915,380.657898 591.641296,368.719727 593.652527,356.633118 
	C594.591431,350.990265 597.046997,349.815887 602.214966,350.101593 
	C610.136963,350.539520 618.100952,350.216583 626.283203,350.216583 
	C628.061707,341.733337 629.739075,333.732788 631.524963,325.214478 
	C614.022827,325.214478 597.385376,325.347565 580.753113,325.114227 
	C576.935669,325.060638 575.711365,326.249390 574.948608,329.911346 
	C566.236877,371.735321 557.324707,413.517517 548.463623,455.310394 
	C546.099487,466.460846 543.727112,477.609589 541.255554,489.243896 
	C560.109070,489.243896 578.322021,489.243896 596.801392,489.243896 
	C598.480286,481.143097 600.118469,473.238983 601.884827,464.716187 
	C591.363464,464.716187 581.305237,464.716187 570.856628,464.716187 
	C573.930908,450.322174 576.803284,436.516846 579.956360,422.775909 
	C580.213806,421.654083 582.344727,420.288177 583.676575,420.207001 
	C588.657166,419.903351 593.677063,419.900726 598.663269,420.155579 
	C601.827881,420.317322 603.301453,419.080841 603.836060,415.273346 
z"/>
<path fill="#040404" opacity="1.000000" stroke="none" 
	d="
M151.986145,325.215790 
	C156.129379,325.215790 159.776642,325.215790 164.344574,325.215790 
	C163.762161,351.465881 163.183395,377.551758 162.604630,403.637634 
	C162.911316,403.691681 163.218018,403.745728 163.524704,403.799805 
	C169.760223,388.339630 175.985245,372.875244 182.235092,357.420898 
	C186.157135,347.722656 190.053513,338.012848 194.134140,328.381409 
	C194.678314,327.096985 196.216858,325.361298 197.335693,325.330750 
	C206.431702,325.082733 215.537460,325.191315 225.221832,325.191315 
	C213.526489,380.297424 201.980194,434.701202 190.387787,489.322296 
	C182.836655,489.322296 175.605133,489.322296 167.686462,489.322296 
	C174.671448,455.903809 181.597473,422.767395 188.523499,389.631012 
	C188.092346,389.475189 187.661179,389.319336 187.230026,389.163513 
	C186.573074,390.456757 185.770294,391.697266 185.280609,393.051025 
	C174.493805,422.870453 163.724228,452.696167 152.994797,482.536316 
	C150.183823,490.354065 148.951065,491.027161 139.763382,488.798370 
	C141.951401,453.469635 144.144730,418.055145 146.338074,382.640686 
	C145.920593,382.584778 145.503128,382.528900 145.085663,382.472992 
	C142.719284,393.607208 140.346542,404.740082 137.987839,415.875916 
	C133.026596,439.298645 128.103531,462.729645 123.032150,486.128479 
	C122.754814,487.408051 121.307503,489.369080 120.334274,489.411926 
	C113.722191,489.703186 107.091171,489.564209 99.799789,489.564209 
	C101.636757,480.582184 103.293350,472.182831 105.077042,463.810547 
	C114.636276,418.941620 124.271385,374.088654 133.711121,329.194641 
	C134.364090,326.089233 135.339188,324.963196 138.497925,325.150940 
	C142.814713,325.407532 147.158157,325.215515 151.986145,325.215790 
z"/>
<path fill="#030303" opacity="1.000000" stroke="none" 
	d="
M541.003113,94.903198 
	C545.289734,94.903198 549.082153,94.903198 553.531555,94.903198 
	C551.149963,106.207321 548.907898,116.899323 546.643921,127.586693 
	C539.133911,163.039200 531.629822,198.492981 524.094116,233.940033 
	C521.156311,247.759491 518.222046,261.581299 515.030518,275.342743 
	C514.719788,276.682800 512.645447,278.503754 511.315765,278.567871 
	C504.523895,278.895416 497.707764,278.719238 490.189850,278.719238 
	C489.137695,261.726288 488.320557,245.020279 487.009857,228.353088 
	C485.711487,211.842773 485.857941,195.177490 483.056305,178.811447 
	C482.588379,178.804337 482.120453,178.797226 481.652527,178.790115 
	C480.055237,186.423370 478.477417,194.060776 476.857117,201.689148 
	C471.675842,226.082703 466.503723,250.478317 461.221893,274.850128 
	C460.925903,276.215881 459.715179,278.432556 458.863007,278.464539 
	C451.290253,278.749023 443.702301,278.630005 435.493378,278.630005 
	C438.240143,265.496368 440.791595,253.187500 443.391022,240.888779 
	C450.334290,208.037628 457.283539,175.187714 464.260529,142.343719 
	C467.369629,127.707703 470.492157,113.073715 473.796906,98.481468 
	C474.103821,97.126244 475.732452,95.096939 476.819885,95.049690 
	C483.942902,94.740257 491.085907,94.890335 498.831207,94.890335 
	C500.873932,128.947906 502.895630,162.654800 504.917328,196.361710 
	C505.400269,196.429962 505.883179,196.498215 506.366119,196.566467 
	C506.980896,194.181091 507.682404,191.814270 508.197296,189.407516 
	C514.525085,159.828384 520.939270,130.266708 527.010376,100.634804 
	C527.920471,96.192474 529.350525,94.137848 534.018188,94.848328 
	C536.135498,95.170593 538.342590,94.903137 541.003113,94.903198 
z"/>
<path fill="#030303" opacity="1.000000" stroke="none" 
	d="
M271.351807,175.453339 
	C266.152527,199.244781 261.836792,222.832565 255.712906,245.941177 
	C251.494583,261.859009 241.477875,274.462891 224.823044,279.124634 
	C213.440552,282.310669 201.511642,282.819122 192.039993,273.527039 
	C184.199631,265.835297 183.146545,255.668457 184.697479,245.602951 
	C186.820465,231.824890 189.973022,218.200531 192.841904,204.543411 
	C198.207047,179.002823 203.681152,153.485092 209.118896,127.959770 
	C211.435425,117.085732 213.774490,106.216499 216.146088,95.145416 
	C225.190979,95.145416 233.957077,95.145416 243.474487,95.145416 
	C241.666168,103.875648 239.936661,112.423965 238.120972,120.953941 
	C232.756973,146.153595 227.349930,171.344070 221.977768,196.542007 
	C218.997040,210.522903 216.026581,224.506134 213.115707,238.501663 
	C212.610611,240.930176 211.752777,243.576996 212.265015,245.851074 
	C212.895065,248.648193 214.141113,252.345596 216.289276,253.523972 
	C219.714813,255.403076 223.781021,253.646210 225.786453,250.228088 
	C227.940506,246.556702 229.781799,242.469116 230.678848,238.328979 
	C239.514435,197.549805 248.134155,156.723801 256.788605,115.905449 
	C257.995300,110.214172 259.072174,104.495140 260.182098,98.783699 
	C260.616425,96.548637 261.074310,94.748505 264.156281,94.828026 
	C271.958313,95.029335 279.769012,94.894829 288.581116,94.894829 
	C282.805115,121.941246 277.134674,148.493286 271.351807,175.453339 
z"/>
<path fill="#030303" opacity="1.000000" stroke="none" 
	d="
M290.061523,170.071259 
	C293.096313,156.189209 295.809021,142.660629 299.109833,129.277100 
	C303.816559,110.192993 318.787476,95.773003 335.792358,93.387825 
	C361.371979,89.799896 372.830383,104.507576 371.014923,127.169296 
	C370.170776,137.706665 367.197144,148.085312 364.928375,158.479065 
	C364.691681,159.563370 362.703400,160.984253 361.491547,161.020004 
	C353.692993,161.250015 345.884277,161.137558 337.157013,161.137558 
	C338.666321,153.691895 340.057922,146.796021 341.464142,139.903152 
	C342.162292,136.481140 343.158722,133.093506 343.526489,129.637772 
	C343.921051,125.930252 343.637390,121.859947 339.661377,120.198631 
	C335.448975,118.438522 331.320221,120.105743 329.380646,123.996399 
	C327.048431,128.674728 325.325287,133.798874 324.212646,138.919937 
	C316.945557,172.368530 309.898529,205.865067 302.835358,239.357697 
	C302.187225,242.430923 301.308990,245.664017 301.684967,248.679825 
	C301.994110,251.159531 303.576355,254.912140 305.368958,255.432541 
	C307.921021,256.173431 311.782654,255.262497 313.975098,253.596664 
	C316.269928,251.853058 317.973541,248.556137 318.679840,245.634598 
	C321.374237,234.489105 323.568359,223.222473 325.916687,211.994263 
	C326.006805,211.563507 325.760498,211.062363 325.628632,210.372681 
	C322.515839,210.184738 319.434967,209.998734 315.845703,209.782028 
	C317.343475,202.522995 318.678802,195.718063 320.228546,188.962341 
	C320.422028,188.118851 321.742859,186.931519 322.552734,186.922409 
	C334.325531,186.790070 346.100220,186.831635 358.690002,186.831635 
	C357.154510,194.382904 355.808380,201.150162 354.399567,207.904358 
	C349.818329,229.868027 345.140808,251.812057 340.690125,273.802063 
	C339.934357,277.536102 338.575867,279.469360 334.525726,278.764618 
	C333.070435,278.511414 331.534119,278.723511 330.034760,278.723999 
	C322.797729,278.726471 322.797729,278.726532 321.716522,271.259094 
	C320.670624,271.848938 319.632507,272.243561 318.828217,272.917328 
	C310.642609,279.774658 301.319672,281.903870 290.869385,280.086365 
	C280.803406,278.335724 272.726929,268.491913 273.399689,256.013824 
	C273.949707,245.812042 276.316406,235.669479 278.343994,225.594482 
	C282.048004,207.189545 286.096954,188.854004 290.061523,170.071259 
z"/>
<path fill="#040404" opacity="1.000000" stroke="none" 
	d="
M371.844635,489.614746 
	C371.241638,488.133301 370.667633,486.595978 370.949738,485.236328 
	C375.678223,462.447144 380.497559,439.676758 385.329254,416.909058 
	C391.507599,387.795776 397.780212,358.702148 403.817200,329.559662 
	C404.478973,326.365204 405.318237,324.939056 408.840393,325.132874 
	C414.480133,325.443207 420.149445,325.215973 426.544525,325.215973 
	C428.388550,355.584351 430.223663,385.805817 432.058777,416.027283 
	C432.516510,416.083954 432.974213,416.140625 433.431946,416.197266 
	C434.598877,411.041321 435.827118,405.898346 436.922241,400.727203 
	C442.019043,376.660400 447.037842,352.576843 452.265686,328.538727 
	C452.547333,327.243652 454.427643,325.414062 455.641479,325.351990 
	C461.931122,325.030090 468.246094,325.202271 475.441162,325.202271 
	C473.766235,333.246857 472.214325,340.789948 470.623840,348.324890 
	C461.697906,390.611084 452.670441,432.876160 443.881592,475.190826 
	C440.900452,489.543823 441.172089,489.600281 426.353607,489.600647 
	C424.044128,489.600708 421.734650,489.600647 418.874695,489.600647 
	C416.974792,459.827911 415.097229,430.405457 413.219696,400.983002 
	C412.734772,400.892639 412.249878,400.802277 411.764954,400.711914 
	C411.178467,402.532806 410.425385,404.318390 410.030823,406.179962 
	C405.272064,428.631256 400.573059,451.095215 395.840637,473.552094 
	C394.983826,477.617981 393.700500,481.629211 393.252930,485.735291 
	C392.876160,489.192200 391.142059,489.700409 388.269745,489.638184 
	C382.939667,489.522644 377.604828,489.628113 371.844635,489.614746 
z"/>
<path fill="#030303" opacity="1.000000" stroke="none" 
	d="
M459.215942,489.281250 
	C461.023193,477.867188 462.990509,466.660309 465.333191,455.532471 
	C474.162445,413.593170 483.161316,371.689514 491.930664,329.737823 
	C492.644592,326.322540 493.724670,324.924652 497.360779,325.150848 
	C507.969513,325.810760 518.720764,325.318024 529.188171,326.842560 
	C544.496277,329.072113 551.611023,337.307983 550.904297,352.774231 
	C550.270081,366.652069 548.372742,380.593719 545.627869,394.224365 
	C541.763000,413.417511 537.049988,432.473633 531.829956,451.347809 
	C528.588989,463.066010 523.582886,474.230011 512.911560,481.578339 
	C504.194885,487.580688 494.225250,489.173004 484.017487,489.536530 
	C475.871582,489.826630 467.705475,489.549866 459.215942,489.281250 
M523.947510,376.359985 
	C524.309082,369.752747 525.079712,363.133820 524.891541,356.542297 
	C524.761169,351.976257 521.351807,350.267090 515.399841,349.834595 
	C510.590576,349.485077 511.660156,353.196899 511.144928,355.561951 
	C505.318359,382.308624 499.600891,409.079102 493.867706,435.846100 
	C491.825714,445.379669 489.820221,454.921051 487.760742,464.634644 
	C495.248657,465.912445 500.841400,463.595795 503.947479,457.197662 
	C506.462921,452.016144 508.633942,446.515656 509.925110,440.918457 
	C514.809937,419.742371 519.274048,398.469208 523.947510,376.359985 
z"/>
<path fill="#030303" opacity="1.000000" stroke="none" 
	d="
M559.946655,156.902039 
	C564.013000,137.449570 567.994080,118.406342 572.195740,99.411903 
	C572.565308,97.741104 574.360474,95.098015 575.523315,95.082092 
	C595.159119,94.813210 614.799561,94.889687 635.210327,94.889687 
	C633.143860,104.530457 631.184326,113.672287 629.177673,123.033768 
	C617.493713,123.033768 606.200378,123.033768 594.491882,123.033768 
	C591.116516,138.899124 587.786438,154.551178 584.328979,170.802399 
	C592.944580,170.802399 600.869385,170.802399 609.345215,170.802399 
	C607.244446,180.427155 605.383850,189.512970 603.138123,198.502594 
	C602.869446,199.578079 600.535278,200.752792 599.110840,200.816574 
	C593.289673,201.077179 587.439758,200.736267 581.624146,201.052917 
	C580.124084,201.134598 577.685120,202.572815 577.412964,203.779404 
	C574.010742,218.860062 570.924194,234.012024 567.784851,249.151550 
	C567.693176,249.593781 567.910461,250.100098 568.039062,250.936584 
	C579.172974,250.936584 590.294067,250.936584 601.903809,250.936584 
	C600.147888,259.790283 598.572693,268.217377 596.683533,276.573486 
	C596.474670,277.497192 594.474548,278.624512 593.299988,278.630432 
	C574.139771,278.727142 554.978760,278.660370 535.817932,278.605988 
	C535.536682,278.605194 535.256409,278.294342 534.260193,277.704712 
	C542.777161,237.748825 551.348755,197.536575 559.946655,156.902039 
z"/>
<path fill="#030303" opacity="1.000000" stroke="none" 
	d="
M117.884560,197.837280 
	C124.962578,164.573135 131.906769,131.710968 139.011322,98.883522 
	C139.333878,97.393097 141.090683,95.075684 142.202347,95.062431 
	C161.837570,94.828438 181.476318,94.892990 201.841370,94.892990 
	C199.797760,104.422379 197.867401,113.423706 195.840912,122.873306 
	C184.352814,122.873306 172.926590,122.873306 161.164993,122.873306 
	C157.760056,138.803894 154.438477,154.344498 150.953476,170.649628 
	C159.406021,170.649628 167.579575,170.649628 175.989792,170.649628 
	C173.979370,180.001129 172.021805,188.580307 170.342743,197.213654 
	C169.784622,200.083374 168.515259,201.061462 165.654678,200.976013 
	C159.826614,200.801910 153.979111,200.735260 148.163773,201.058533 
	C146.709335,201.139389 144.370560,202.646088 144.089874,203.874771 
	C140.578598,219.244843 137.371582,234.684402 133.954956,250.723846 
	C145.469254,250.723846 156.676285,250.723846 168.625259,250.723846 
	C166.748230,259.813690 165.084000,268.227539 163.176163,276.585815 
	C162.976532,277.460327 161.337555,278.613708 160.365280,278.614746 
	C140.893829,278.635620 121.422234,278.506744 101.950729,278.394897 
	C101.815804,278.394135 101.681931,278.210480 100.945107,277.671631 
	C106.514191,251.399185 112.147766,224.822540 117.884560,197.837280 
z"/>
<path fill="#030303" opacity="1.000000" stroke="none" 
	d="
M417.920837,128.915222 
	C414.913757,142.931519 412.002411,156.531860 408.962128,170.734329 
	C417.514984,170.734329 425.602386,170.734329 433.989624,170.734329 
	C432.030212,179.881073 430.072693,188.435944 428.418671,197.049088 
	C427.821442,200.159195 426.397522,201.099945 423.345734,200.986832 
	C417.520721,200.770950 411.676697,200.792587 405.853149,201.027390 
	C404.575104,201.078918 402.455780,202.232590 402.233490,203.218903 
	C398.697815,218.909760 395.408051,234.656036 391.965027,250.846268 
	C403.526978,250.846268 414.643951,250.846268 426.621368,250.846268 
	C424.747650,259.894897 423.053741,268.434967 421.100830,276.915405 
	C420.918030,277.709167 419.102325,278.636017 418.039642,278.642365 
	C399.041870,278.755951 380.043274,278.743317 361.044891,278.715576 
	C360.459198,278.714722 359.874115,278.261047 358.947052,277.876892 
	C362.039581,263.164490 365.079193,248.571320 368.177429,233.990601 
	C375.709991,198.541168 383.278412,163.099335 390.813171,127.650368 
	C392.921631,117.730682 394.881836,107.778145 397.143555,97.894119 
	C397.412109,96.720497 399.153381,95.030037 400.224762,95.020569 
	C419.862335,94.847008 439.501923,94.893684 459.876678,94.893684 
	C457.830170,104.409981 455.895020,113.408318 453.862579,122.859177 
	C442.378815,122.859177 430.960602,122.859177 419.272400,122.859177 
	C418.794006,125.007675 418.405273,126.753479 417.920837,128.915222 
z"/>
<path fill="#040404" opacity="1.000000" stroke="none" 
	d="
M280.971313,485.899902 
	C299.831177,433.882111 318.602692,382.251129 337.232422,330.569092 
	C338.665344,326.594025 340.470215,324.827393 344.992920,325.091309 
	C352.760956,325.544617 360.574615,325.216644 369.203308,325.216644 
	C365.840210,380.150757 362.502686,434.667053 359.153046,489.381653 
	C351.081390,489.381653 343.496674,489.381653 335.393951,489.381653 
	C336.136536,478.431946 336.861267,467.745331 337.646698,456.163666 
	C330.234009,456.163666 323.168304,456.050812 316.116943,456.316925 
	C315.302032,456.347687 314.289093,458.387512 313.839172,459.662170 
	C310.801056,468.269501 307.780762,476.886688 304.997528,485.578491 
	C304.035431,488.583069 302.574921,489.827606 299.329803,489.669830 
	C294.011047,489.411285 288.668793,489.522064 283.339813,489.634796 
	C280.692810,489.690765 279.389954,489.096344 280.971313,485.899902 
M341.906769,406.439850 
	C342.662354,396.394135 343.417969,386.348389 344.173553,376.302673 
	C343.682739,376.228638 343.191925,376.154602 342.701111,376.080566 
	C336.532684,393.951843 330.364227,411.823120 324.132874,429.876678 
	C329.660645,429.876678 334.739441,429.876678 340.002502,429.876678 
	C340.625092,422.180115 341.224792,414.766632 341.906769,406.439850 
z"/>
<path fill="#030303" opacity="1.000000" stroke="none" 
	d="
M233.928040,365.941956 
	C236.628601,353.340790 239.199677,341.143036 241.988922,328.995361 
	C242.312180,327.587463 243.848145,325.364349 244.817963,325.366425 
	C255.466232,325.388977 266.235382,324.877228 276.730988,326.293945 
	C290.179352,328.109283 297.475555,336.433563 300.298615,349.882446 
	C303.859100,366.844330 294.974060,403.245605 273.222717,416.411438 
	C264.850708,421.478851 255.811783,423.573059 246.106705,424.343506 
	C241.806793,444.664368 237.439697,464.788177 233.376526,484.973175 
	C232.634354,488.660004 231.323517,489.904114 227.534042,489.696106 
	C221.143097,489.345306 214.718918,489.599945 207.794250,489.599945 
	C216.612503,447.912750 225.238052,407.136536 233.928040,365.941956 
M258.299438,365.865204 
	C256.062561,376.776398 253.825668,387.687561 251.527710,398.896606 
	C259.870575,399.092010 266.963776,397.318359 269.432495,389.725830 
	C272.471588,380.379120 274.504944,370.589264 275.805328,360.835297 
	C276.631287,354.640228 270.950226,349.962250 264.575684,350.353943 
	C263.336914,350.430054 261.562195,352.134705 261.155212,353.438080 
	C259.975769,357.215118 259.366577,361.170197 258.299438,365.865204 
z"/>
<path fill="#040404" opacity="1.000000" stroke="none" 
	d="
M603.724976,415.683624 
	C603.301453,419.080841 601.827881,420.317322 598.663269,420.155579 
	C593.677063,419.900726 588.657166,419.903351 583.676575,420.207001 
	C582.344727,420.288177 580.213806,421.654083 579.956360,422.775909 
	C576.803284,436.516846 573.930908,450.322174 570.856628,464.716187 
	C581.305237,464.716187 591.363464,464.716187 601.884827,464.716187 
	C600.118469,473.238983 598.480286,481.143097 596.801392,489.243896 
	C578.322021,489.243896 560.109070,489.243896 541.255554,489.243896 
	C543.727112,477.609589 546.099487,466.460846 548.463623,455.310394 
	C557.324707,413.517517 566.236877,371.735321 574.948608,329.911346 
	C575.711365,326.249390 576.935669,325.060638 580.753113,325.114227 
	C597.385376,325.347565 614.022827,325.214478 631.524963,325.214478 
	C629.739075,333.732788 628.061707,341.733337 626.283203,350.216583 
	C618.100952,350.216583 610.136963,350.539520 602.214966,350.101593 
	C597.046997,349.815887 594.591431,350.990265 593.652527,356.633118 
	C591.641296,368.719727 588.737915,380.657898 586.120178,393.033539 
	C593.548035,393.033539 600.676758,393.033539 608.322083,393.033539 
	C606.771118,400.722595 605.303589,407.997986 603.724976,415.683624 
z"/>
<path fill="#FAFAFA" opacity="1.000000" stroke="none" 
	d="
M523.921570,376.796204 
	C519.274048,398.469208 514.809937,419.742371 509.925110,440.918457 
	C508.633942,446.515656 506.462921,452.016144 503.947479,457.197662 
	C500.841400,463.595795 495.248657,465.912445 487.760742,464.634644 
	C489.820221,454.921051 491.825714,445.379669 493.867706,435.846100 
	C499.600891,409.079102 505.318359,382.308624 511.144928,355.561951 
	C511.660156,353.196899 510.590576,349.485077 515.399841,349.834595 
	C521.351807,350.267090 524.761169,351.976257 524.891541,356.542297 
	C525.079712,363.133820 524.309082,369.752747 523.921570,376.796204 
z"/>
<path fill="#F7F7F7" opacity="1.000000" stroke="none" 
	d="
M341.865662,406.896484 
	C341.224792,414.766632 340.625092,422.180115 340.002502,429.876678 
	C334.739441,429.876678 329.660645,429.876678 324.132874,429.876678 
	C330.364227,411.823120 336.532684,393.951843 342.701111,376.080566 
	C343.191925,376.154602 343.682739,376.228638 344.173553,376.302673 
	C343.417969,386.348389 342.662354,396.394135 341.865662,406.896484 
z"/>
<path fill="#F9F9F9" opacity="1.000000" stroke="none" 
	d="
M258.416504,365.460327 
	C259.366577,361.170197 259.975769,357.215118 261.155212,353.438080 
	C261.562195,352.134705 263.336914,350.430054 264.575684,350.353943 
	C270.950226,349.962250 276.631287,354.640228 275.805328,360.835297 
	C274.504944,370.589264 272.471588,380.379120 269.432495,389.725830 
	C266.963776,397.318359 259.870575,399.092010 251.527710,398.896606 
	C253.825668,387.687561 256.062561,376.776398 258.416504,365.460327 
z"/>
</svg>